<?xml version="1.0" encoding="utf-8"?>
<!-- Generator: Adobe Illustrator 26.0.2, SVG Export Plug-In . SVG Version: 6.00 Build 0)  -->
<svg version="1.1" id="Layer_1" xmlns="http://www.w3.org/2000/svg" xmlns:xlink="http://www.w3.org/1999/xlink" x="0px" y="0px"
	 viewBox="0 0 137 42" style="enable-background:new 0 0 137 42;" xml:space="preserve">
<style type="text/css">
	.st0{fill:#0F1924;}
</style>
<g id="Carbice_Logo_H" transform="translate(0)">
	<path id="Path_11" class="st0" d="M57.7,27.7c-3.6-0.1-6.4-3.2-6.3-6.8c0.1-3.4,2.9-6.1,6.3-6.3c1.5,0,3,0.4,4.2,1.2l1.2-2.8
		c-1.5-1-3.3-1.6-5.1-1.7c0,0-0.4,0-0.6,0c-5.4,0-9.8,4.4-9.8,9.8S52,31,57.4,31c2,0,4-0.6,5.7-1.7c-0.5-0.9-0.9-1.9-1.2-2.9
		C60.7,27.2,59.2,27.7,57.7,27.7"/>
	<path id="Path_12" class="st0" d="M74.3,23.9c0-2.3-1.5-4-3.5-4c-2,0-3.5,1.7-3.5,4s1.5,4,3.5,4C72.8,27.9,74.3,26.3,74.3,23.9
		 M63.9,23.9c0-4.3,2.9-7,6-7c1.9,0,3.6,0.9,4.5,2.5l0.3-2.2h2.8v13.4h-2.8l-0.3-2.2c-1,1.6-2.7,2.6-4.5,2.5
		C66.8,31,63.9,28.2,63.9,23.9"/>
	<path id="Path_13" class="st0" d="M80.4,17.2h2.7l0.3,2h0c0.7-1.4,2.2-2.2,3.7-2.2c0.3,0,0.7,0,1,0.1v3.1c-0.4-0.1-0.7-0.1-1.1-0.1
		c-1.7-0.1-3.2,1.2-3.3,2.9c0,0.2,0,0.4,0,0.6v6.9h-3.4L80.4,17.2z"/>
	<path id="Path_14" class="st0" d="M93.5,23.9c0,2.3,1.5,4,3.5,4c2,0,3.5-1.6,3.5-3.9c0-2.3-1.5-4-3.5-4
		C95,19.9,93.5,21.6,93.5,23.9 M93.6,19.3c1-1.5,2.6-2.4,4.4-2.4c3.1,0,5.9,2.7,5.9,7s-2.9,7-6,7c-1.8,0-3.5-1-4.5-2.5L93,30.6h-2.8
		V11.4h3.4L93.6,19.3z"/>
	<path id="Path_15" class="st0" d="M105.7,13.2c0-1,0.8-1.9,1.9-1.9s1.9,0.8,1.9,1.9l0,0c0,1-0.8,1.9-1.9,1.9S105.7,14.3,105.7,13.2
		"/>
	<rect id="Rectangle_3" x="106" y="17.5" class="st0" width="3.4" height="13.1"/>
	<path id="Path_16" class="st0" d="M122,26.9L122,26.9c-1,0.7-2.2,1-3.4,1c-2.2,0-4-1.8-4-4c0-2.2,1.8-4,4-4c1.2,0,2.4,0.3,3.4,1
		c0.3-0.8,0.6-1.7,1.1-2.4c-0.3-0.3-0.7-0.5-1-0.7c-1.2-0.6-2.5-1-3.9-0.9c-3.9,0-7,3.2-6.9,7.1c0,3.8,3.1,6.9,6.9,6.9
		c1.8,0.1,3.5-0.5,4.9-1.7C122.7,28.6,122.3,27.7,122,26.9"/>
	<path id="Path_17" class="st0" d="M130.6,19.6c1.6,0,2.8,1.1,2.9,3.2h-6.3C127.3,21,128.8,19.7,130.6,19.6 M134.9,27.3
		c-1,0.6-2.2,0.9-3.3,0.9c-2.1,0.1-4-1.3-4.4-3.3h9.4c0.1-0.4,0.1-0.8,0.1-1.2c0-4.4-2.7-6.8-6.1-6.8c-3.7,0-6.7,2.8-6.7,7.1
		c0,4.1,2.7,7,7.2,7c1.6,0,3.3-0.4,4.6-1.3L134.9,27.3z"/>
	<path id="Path_18" class="st0" d="M24,9.6l3.6-6.2h7.2l3.6,6.2l-3.6,6.2h-7.2L24,9.6z M25.6,0L20,9.6l5.6,9.6h11.1l5.6-9.6L36.7,0
		H25.6z"/>
	<path id="Path_19" class="st0" d="M24,32.4l3.6-6.2h7.2l3.6,6.2l-3.6,6.2h-7.2L24,32.4z M25.6,22.7L20,32.4l5.6,9.6h11.1l5.6-9.6
		l-5.6-9.6H25.6z"/>
	<path id="Path_20" class="st0" d="M5.9,11.4L0.4,21l5.6,9.6h11.1l4.6-7.9h-4l-2.6,4.5H7.9L4.3,21l3.6-6.2h7.2l2.6,4.5h4l-4.6-7.9
		H5.9z"/>
</g>
</svg>
